# xmcd
#
# Track frame offsets: 
#        150
#        18988
#        36956
#        59567
#        80963
#        101316
#        119152
#        142089
#        164289
#        182227
#        211908
#        235869
#        254563
#        275089
#        287761
#        327267
#
# Disc length: 4681 seconds
#
# Revision: 0
# Processed by: cddbd v1.5.2PL0 Copyright (c) Steve Scherf et al.
# Submitted via: ExactAudioCopy v1.3
#
DISCID=fc124710
DTITLE=Lucky Peterson - 50 - Just Warming Up!
DYEAR=2019
DGENRE=Blues
TTITLE0=50 Years
TTITLE1=Pack It Up
TTITLE2=Dreamin' About You
TTITLE3=Don't Want Nobody But You (feat. Tamara Tramell)
TTITLE4=Repossess Your Love
TTITLE5=I Will Die 4 U (feat. Tamara Tramell)
TTITLE6=Never Make Your Move Too Soon
TTITLE7=Clickety Click
TTITLE8=The Blues Is Driving Me
TTITLE9=Angel of Mercy
TTITLE10=Going Where My Roots Come From
TTITLE11=Takin Care of Mine (feat. Aelpéacha)
TTITLE12=Let the Good Time Party Begin (feat. Danielia Cotton and Sugar 
TTITLE12=Blue)
TTITLE13=Kissin' On My Lips (feat. Jakk Jo)
TTITLE14=Amazing Grace - Precious Lord (feat. Sharon Riley)
TTITLE15=Good Love
EXTD=
EXTT0=
EXTT1=
EXTT2=
EXTT3=
EXTT4=
EXTT5=
EXTT6=
EXTT7=
EXTT8=
EXTT9=
EXTT10=
EXTT11=
EXTT12=
EXTT13=
EXTT14=
EXTT15=
PLAYORDER=
